<?xml version="1.0" encoding="UTF-8" standalone="no"?><!DOCTYPE svg PUBLIC "-//W3C//DTD SVG 1.1//EN" "http://www.w3.org/Graphics/SVG/1.1/DTD/svg11.dtd"><svg width="100%" height="100%" viewBox="0 0 33 33" version="1.1" xmlns="http://www.w3.org/2000/svg" xmlns:xlink="http://www.w3.org/1999/xlink" xml:space="preserve" xmlns:serif="http://www.serif.com/" style="fill-rule:evenodd;clip-rule:evenodd;stroke-linejoin:round;stroke-miterlimit:2;"><path d="M16.5,0c9.107,0 16.5,7.393 16.5,16.5c0,9.107 -7.393,16.5 -16.5,16.5c-9.107,0 -16.5,-7.393 -16.5,-16.5c0,-9.107 7.393,-16.5 16.5,-16.5Zm-3.366,18.205c-0.217,0.943 -0.574,1.635 -1.072,2.074c-0.499,0.44 -1.093,0.659 -1.785,0.659c-0.937,0 -1.699,-0.345 -2.285,-1.037c-0.586,-0.691 -0.879,-1.851 -0.879,-3.48c0,-1.535 0.298,-2.646 0.892,-3.331c0.595,-0.686 1.37,-1.028 2.325,-1.028c0.691,-0 1.279,0.193 1.762,0.58c0.484,0.386 0.802,0.914 0.954,1.582l2.575,-0.616c-0.293,-1.031 -0.732,-1.822 -1.318,-2.373c-0.985,-0.931 -2.265,-1.397 -3.841,-1.397c-1.805,-0 -3.261,0.593 -4.368,1.78c-1.108,1.186 -1.661,2.852 -1.661,4.996c-0,2.028 0.55,3.626 1.652,4.795c1.102,1.169 2.508,1.753 4.219,1.753c1.383,0 2.524,-0.341 3.423,-1.024c0.899,-0.682 1.543,-1.727 1.929,-3.133l-2.522,-0.8Zm8.042,4.737l2.777,0l4.614,-12.884l-2.759,-0l-3.156,9.536l-3.26,-9.536l-2.822,-0l4.606,12.884Z"/></svg>