<svg width="33" height="33" viewBox="0 0 33 33" fill="none" xmlns="http://www.w3.org/2000/svg">
<path fill-rule="evenodd" clip-rule="evenodd" d="M16.5 33C25.6127 33 33 25.6127 33 16.5C33 7.3873 25.6127 0 16.5 0C7.3873 0 0 7.3873 0 16.5C0 25.6127 7.3873 33 16.5 33ZM13.9489 14.5H15.446C15.3333 13.8641 15.1281 13.2986 14.8303 12.8036C14.5324 12.3046 14.1622 11.882 13.7195 11.5359C13.2768 11.1857 12.7797 10.9201 12.2283 10.739C11.681 10.5579 11.0954 10.4673 10.4716 10.4673C9.41714 10.4673 8.4794 10.7249 7.65838 11.2401C6.83736 11.7552 6.19141 12.4877 5.72053 13.4375C5.24964 14.3873 5.0142 15.5142 5.0142 16.8182C5.0142 18.1222 5.24964 19.2491 5.72053 20.1989C6.19141 21.1487 6.83736 21.8812 7.65838 22.3963C8.4794 22.9115 9.41714 23.169 10.4716 23.169C11.0954 23.169 11.681 23.0785 12.2283 22.8974C12.7797 22.7163 13.2768 22.4527 13.7195 22.1065C14.1622 21.7564 14.5324 21.3318 14.8303 20.8327C15.1281 20.3337 15.3333 19.7682 15.446 19.1364H13.9489C13.8603 19.563 13.7054 19.9413 13.484 20.2713C13.2667 20.5973 13.0011 20.873 12.6871 21.0984C12.3772 21.3197 12.0331 21.4867 11.6548 21.5994C11.2765 21.7121 10.8821 21.7685 10.4716 21.7685C9.72301 21.7685 9.04486 21.5793 8.43715 21.201C7.83345 20.8227 7.35251 20.2653 6.99432 19.5288C6.64015 18.7923 6.46307 17.8887 6.46307 16.8182C6.46307 15.7476 6.64015 14.8441 6.99432 14.1076C7.35251 13.3711 7.83345 12.8137 8.43715 12.4354C9.04486 12.0571 9.72301 11.8679 10.4716 11.8679C10.8821 11.8679 11.2765 11.9242 11.6548 12.0369C12.0331 12.1496 12.3772 12.3187 12.6871 12.544C13.0011 12.7654 13.2667 13.0391 13.484 13.3651C13.7054 13.6911 13.8603 14.0694 13.9489 14.5ZM22.0429 21.044L18.3724 10.6364H16.8028L21.3426 23H22.8881L27.4278 10.6364H25.8582L22.1878 21.044H22.0429Z" fill="black" fill-opacity="1"/>
</svg>
