<?xml version="1.0" encoding="utf-8"?>
<!-- Generator: Adobe Illustrator 26.5.0, SVG Export Plug-In . SVG Version: 6.00 Build 0)  -->
<svg version="1.1" id="Livello_1" xmlns="http://www.w3.org/2000/svg" xmlns:xlink="http://www.w3.org/1999/xlink" x="0px" y="0px"
	 viewBox="0 0 30 30" style="enable-background:new 0 0 30 30;" xml:space="preserve">
<style type="text/css">
	.st0{fill-rule:evenodd;clip-rule:evenodd;}
</style>
<path class="st0" d="M30,19c-1.9,1-4.1,1.6-6.4,1.6c-7.8,0-14.1-6.3-14.1-14.1C9.4,4.1,10,1.9,11,0C4.6,1.9,0,7.7,0,14.7
	C0,23.1,6.9,30,15.3,30C22.3,30,28.1,25.4,30,19z"/>
<path class="st0" d="M21.4,4.7c-2.5,0.7-2.7,4.7-2.7,4.7S18.5,5.5,16,4.7C18.6,3.9,18.8,0,18.8,0S19,3.9,21.4,4.7z"/>
<path class="st0" d="M3.8,27.4C2,27.8,1.9,30,1.9,30S1.7,27.8,0,27.4c1.7-0.4,1.9-2.6,1.9-2.6S2,26.9,3.8,27.4z"/>
</svg>
