<svg width="33" height="33" viewBox="0 0 33 33" fill="none" xmlns="http://www.w3.org/2000/svg">
<path d="M16.5298 0.123718C7.43512 0.123718 0.0603027 7.6229 0.0603027 16.8743C0.0603027 24.2753 4.7793 30.5543 11.3231 32.7692C12.1462 32.9243 12.4484 32.4059 12.4484 31.9634C12.4484 31.564 12.4331 30.2444 12.426 28.8447C7.84421 29.858 6.87739 26.8684 6.87739 26.8684C6.12821 24.9322 5.04876 24.4174 5.04876 24.4174C3.55448 23.3777 5.16139 23.3991 5.16139 23.3991C6.81521 23.517 7.68603 25.1253 7.68603 25.1253C9.15494 27.6861 11.5388 26.9457 12.4787 26.5177C12.6265 25.4354 13.0533 24.6959 13.5243 24.2778C9.86621 23.8543 6.02076 22.4179 6.02076 15.9995C6.02076 14.1706 6.66412 12.6764 7.71767 11.5033C7.54667 11.0811 6.98294 9.37766 7.87721 7.07035C7.87721 7.07035 9.26021 6.62014 12.4075 8.78738C13.7212 8.41623 15.1301 8.2301 16.5298 8.22372C17.9294 8.2301 19.3394 8.41623 20.6556 8.78738C23.799 6.62014 25.1801 7.07035 25.1801 7.07035C26.0766 9.37766 25.5126 11.0811 25.3416 11.5033C26.3976 12.6764 27.0366 14.1706 27.0366 15.9995C27.0366 22.4332 23.1838 23.8498 19.5164 24.2645C20.1071 24.7843 20.6335 25.8037 20.6335 27.3665C20.6335 29.6076 20.6144 31.4114 20.6144 31.9634C20.6144 32.4092 20.9108 32.9315 21.7457 32.767C28.2859 30.5496 32.9989 24.2728 32.9989 16.8743C32.9989 7.6229 25.6252 0.123718 16.5298 0.123718Z" fill="black" fill-opacity="1"/>
<path d="M6.29813 24.1741C6.26186 24.2576 6.13313 24.2822 6.01586 24.2251C5.8964 24.1705 5.82931 24.057 5.86804 23.9735C5.90349 23.8878 6.03249 23.8642 6.15167 23.9211C6.2714 23.976 6.33958 24.0906 6.29813 24.1741Z" fill="black" fill-opacity="1"/>
<path d="M6.96523 24.9308C6.88669 25.0048 6.73314 24.9704 6.62896 24.8534C6.52123 24.7366 6.50105 24.5804 6.58069 24.5053C6.66169 24.4312 6.8106 24.4659 6.9186 24.5827C7.02632 24.7008 7.04732 24.8559 6.96523 24.9308Z" fill="black" fill-opacity="1"/>
<path d="M7.61459 25.8956C7.51368 25.9668 7.34868 25.9 7.24668 25.751C7.14577 25.6021 7.14577 25.4234 7.24886 25.3519C7.35113 25.2803 7.51368 25.3447 7.61704 25.4925C7.71768 25.6437 7.71768 25.8226 7.61459 25.8956Z" fill="black" fill-opacity="1"/>
<path d="M8.50421 26.8276C8.41394 26.9288 8.22167 26.9016 8.08094 26.7635C7.93694 26.6284 7.89685 26.4367 7.98739 26.3355C8.07876 26.234 8.27212 26.2625 8.41394 26.3996C8.55685 26.5344 8.60048 26.7274 8.50421 26.8276Z" fill="black" fill-opacity="1"/>
<path d="M9.73146 27.3688C9.69164 27.5 9.50646 27.5596 9.31991 27.5039C9.13364 27.4465 9.01173 27.2928 9.04937 27.1602C9.08809 27.0282 9.27409 26.966 9.462 27.0257C9.648 27.0828 9.77018 27.2354 9.73146 27.3688Z" fill="black" fill-opacity="1"/>
<path d="M11.0793 27.4692C11.0839 27.6073 10.9258 27.7219 10.7299 27.7241C10.533 27.7288 10.3738 27.6171 10.3716 27.4811C10.3716 27.3416 10.5262 27.2282 10.7231 27.2248C10.9189 27.2209 11.0793 27.3319 11.0793 27.4692Z" fill="black" fill-opacity="1"/>
<path d="M12.3336 27.252C12.3571 27.3868 12.221 27.5252 12.0265 27.5618C11.8353 27.5976 11.6583 27.5144 11.6341 27.3807C11.6103 27.2425 11.7489 27.1041 11.9398 27.0683C12.1345 27.0339 12.3088 27.1149 12.3336 27.252Z" fill="black" fill-opacity="1"/>
</svg>
