<svg width="42" height="42" viewBox="0 0 42 42" fill="none" xmlns="http://www.w3.org/2000/svg">
<circle cx="21" cy="21" r="13" fill="black" fill-opacity="0.33"/>
<path d="M21 0L24.4641 6H17.5359L21 0Z" fill="black" fill-opacity="0.33"/>
<path d="M21 42L17.5359 36L24.4641 36L21 42Z" fill="black" fill-opacity="0.33"/>
<path d="M42 21L36 24.4641L36 17.5359L42 21Z" fill="black" fill-opacity="0.33"/>
<path d="M-1.74846e-07 21L6 17.5359L6 24.4641L-1.74846e-07 21Z" fill="black" fill-opacity="0.33"/>
<path d="M35.2501 6.75003L34.1406 10.8906L31.1095 7.8595L35.2501 6.75003Z" fill="black" fill-opacity="0.33"/>
<path d="M6.74991 35.25L7.85938 31.1094L10.8905 34.1405L6.74991 35.25Z" fill="black" fill-opacity="0.33"/>
<path d="M35.25 35.25L31.1094 34.1406L34.1405 31.1094L35.25 35.25Z" fill="black" fill-opacity="0.33"/>
<path d="M6.75003 6.74997L10.8906 7.85944L7.8595 10.8906L6.75003 6.74997Z" fill="black" fill-opacity="0.33"/>
</svg>
