<svg width="33" height="33" viewBox="0 0 33 33" fill="none" xmlns="http://www.w3.org/2000/svg">
<path fill-rule="evenodd" clip-rule="evenodd" d="M16.5 0C7.3873 0 0 7.3873 0 16.5C0 25.6127 7.3873 33 16.5 33C25.6127 33 33 25.6127 33 16.5C33 7.3873 25.6127 0 16.5 0ZM7.92111 13.666H11.6604V24.9009H7.92111V13.666ZM11.9066 10.1906C11.8824 9.08903 11.0946 8.25 9.81546 8.25C8.53628 8.25 7.7 9.08903 7.7 10.1906C7.7 11.2694 8.51156 12.1326 9.76692 12.1326H9.79082C11.0946 12.1326 11.9066 11.2694 11.9066 10.1906ZM20.8403 13.4022C23.3009 13.4022 25.1456 15.0083 25.1456 18.4592L25.1454 24.9009H21.4063V18.8903C21.4063 17.3805 20.8652 16.3503 19.5116 16.3503C18.4785 16.3503 17.8632 17.0448 17.593 17.7156C17.4941 17.956 17.4698 18.291 17.4698 18.6267V24.9012H13.7301C13.7301 24.9012 13.7794 14.7205 13.7301 13.6663H17.4698V15.2577C17.9661 14.4927 18.855 13.4022 20.8403 13.4022Z" fill="black" fill-opacity="0.33"/>
</svg>
