<?xml version="1.0" encoding="UTF-8" standalone="no"?>
<!DOCTYPE svg PUBLIC "-//W3C//DTD SVG 1.1//EN" "http://www.w3.org/Graphics/SVG/1.1/DTD/svg11.dtd">
<svg id="rotateDeviceSvg" width="100%" height="100%" viewBox="0 0 712 881" version="1.1" xmlns="http://www.w3.org/2000/svg" xmlns:xlink="http://www.w3.org/1999/xlink" xml:space="preserve" xmlns:serif="http://www.serif.com/" style="fill-rule:evenodd;clip-rule:evenodd;stroke-linejoin:round;stroke-miterlimit:2;">
    <g transform="matrix(1,0,0,1,-206.5,-777.499)">
        <g>
            <g id="phoneSvg" transform="matrix(0.439632,-0.000151109,0.000151109,0.439632,319.273,902.922)">
                <path d="M777.357,382.794C777.357,354.261 754.191,331.095 725.658,331.095L380.353,331.095C351.82,331.095 328.655,354.261 328.655,382.794L328.655,1050.96C328.655,1079.49 351.82,1102.66 380.353,1102.66L725.658,1102.66C754.191,1102.66 777.357,1079.49 777.357,1050.96L777.357,382.794Z" style="fill-opacity:0;fill-rule:nonzero;stroke:black;stroke-width:29.57px;"/>
            </g>
            <g  id="arrowOneSvg" transform="matrix(0.999999,1.4706e-10,-1.4706e-10,0.999999,206.531,777.546)">
                    <path d="M637.698,280.249L610.056,355.852L566.158,288.377L637.698,280.249Z" style="fill-rule:nonzero;stroke:black;stroke-width:13px;"/>
                    <path d="M101.823,356.027C101.775,215.776 215.602,101.872 355.852,101.823C476.425,101.782 577.526,185.902 603.554,298.621" style="fill-opacity:0;fill-rule:nonzero;stroke:black;stroke-width:13px;"/>
            </g>
            <g  id="arrowTwoSvg" transform="matrix(0.999999,1.4706e-10,-1.4706e-10,0.999999,206.531,777.545)">
                <path d="M74.24,600.66L101.881,525.056L145.78,592.532L74.24,600.66Z" style="fill-rule:nonzero;stroke:black;stroke-width:13px;"/>
                <path d="M610.114,524.882C610.162,665.132 496.336,779.037 356.085,779.085C235.513,779.127 134.411,695.006 108.384,582.288" style="fill-opacity:0;fill-rule:nonzero;stroke:black;stroke-width:13px;"/>
            </g>
        </g>
    </g>
</svg>
