<?xml version="1.0" encoding="UTF-8"?>
<svg id="Livello_1" data-name="Livello 1" xmlns="http://www.w3.org/2000/svg" xmlns:xlink="http://www.w3.org/1999/xlink" viewBox="0 0 200 200">
  <defs>
    <style>
      .cls-1 {
        fill: url(#Sfumatura_senza_nome_13);
      }

      .cls-2 {
        fill: #1d1d1b;
      }
    </style>
    <linearGradient id="Sfumatura_senza_nome_13" x1="64.06" y1="150.81" x2="100.43" y2="159.37" gradientUnits="userSpaceOnUse">
      <stop offset="0" stop-color="#fff" stop-opacity="0"/>
      <stop offset=".81" stop-color="#000"/>
    </linearGradient>
  </defs>
  <path class="cls-2" d="M90.91,166.48c2.63,.06,5.25,0,7.79-.23,22.37-1.94,37.93-13.37,41.61-30.59,.78-3.64,1-7.44,.67-11.32-1.56-18.07-12.42-28.73-36.29-35.64-17.56-5.11-23.46-9.71-24.26-18.95-.12-1.39-.03-2.79,.27-4.17,.75-3.5,4.06-11.77,18.55-13.02,9.78-.85,17.52,1.47,22.29,3.56l3.11,1.36,4.6-18.81-2.14-.98c-4.39-2.01-13.97-5.18-28.93-3.89-20.31,1.76-35.09,12.98-38.58,29.28h0c-.71,3.34-.92,6.82-.62,10.35,1.49,17.17,13.35,28.07,37.27,34.28,16.15,4.66,22.18,9.84,23.05,19.78,.17,1.92,.06,3.77-.31,5.49-1.75,8.19-9.34,13.46-20.83,14.45-.91,.08-1.82,.13-2.75,.15l-4.51,18.88Z"/>
  <path class="cls-1" d="M67.46,140.55l-4.03,19.25c12.68,7.24,28,6.69,28,6.69l4.72-18.92s-14.3,1.35-28.69-7.02Z"/>
</svg>