<?xml version="1.0" encoding="utf-8"?>
<!-- Generator: Adobe Illustrator 25.2.1, SVG Export Plug-In . SVG Version: 6.00 Build 0)  -->
<!DOCTYPE svg PUBLIC "-//W3C//DTD SVG 1.1//EN" "http://www.w3.org/Graphics/SVG/1.1/DTD/svg11.dtd" [
	<!ENTITY ns_extend "http://ns.adobe.com/Extensibility/1.0/">
	<!ENTITY ns_ai "http://ns.adobe.com/AdobeIllustrator/10.0/">
	<!ENTITY ns_graphs "http://ns.adobe.com/Graphs/1.0/">
	<!ENTITY ns_vars "http://ns.adobe.com/Variables/1.0/">
	<!ENTITY ns_imrep "http://ns.adobe.com/ImageReplacement/1.0/">
	<!ENTITY ns_sfw "http://ns.adobe.com/SaveForWeb/1.0/">
	<!ENTITY ns_custom "http://ns.adobe.com/GenericCustomNamespace/1.0/">
	<!ENTITY ns_adobe_xpath "http://ns.adobe.com/XPath/1.0/">
]>
<svg version="1.1" id="Livello_1" xmlns:x="&ns_extend;" xmlns:i="&ns_ai;" xmlns:graph="&ns_graphs;"
	 xmlns="http://www.w3.org/2000/svg" xmlns:xlink="http://www.w3.org/1999/xlink" x="0px" y="0px" viewBox="0 0 3169.3 1118.7"
	 enable-background="new 0 0 3169.3 1118.7" xml:space="preserve">
<metadata>
	<sfw  xmlns="&ns_sfw;">
		<slices></slices>
		<sliceSourceBounds  bottomLeftOrigin="true" height="1485.2" width="3333.4" x="-207.1" y="-395.6"></sliceSourceBounds>
		<optimizationSettings>
			<targetSettings  fileFormat="PNG24Format" targetSettingsID="0">
				<PNG24Format  filtered="false" interlaced="false" matteColor="#FFFFFF" noMatteColor="false" transparency="true">
					</PNG24Format>
			</targetSettings>
		</optimizationSettings>
	</sfw>
</metadata>
<g id="logo_1" display="none">
	<g display="inline">
		<path fill="#F6B41B" d="M228.6,1026.1C178.2,946.6,106.9,888.7-0.2,867.6c-146.2-5.7-154.5,48.9-93.4,133.8
			c85.1,92,192.6,98.2,311.9,58.9c-60.4-43.2-125.8-72.7-195.4-89.8C78.8,958.5,148.5,979.9,228.6,1026.1z"/>
		<path fill="#F7AF17" d="M179.9,1125.1c-192.4-25-296.1,54.5-359.1,181.9c-79.3,153.9,29.6,179.8,92.1,168.2
			c210.4-47.4,286.1-162.7,293.8-312.3c-94.2,34.4-163.7,89.3-204.3,168.2C25.1,1254.5,87.8,1186.6,179.9,1125.1z"/>
	</g>
	<path display="inline" fill="#F7AF17" d="M646.4,384.8c-22.2,6.5-35.4,29-30.5,51.2c-97.7,63.3-146.5,190-117.3,286.3
		c-12.6,2.1-24.8,5.5-36.6,10.5c-35-81.2-20.2-169,49-261.8c6.6,1.3,13.6,1.1,20.5-0.9c23.2-6.7,36.5-31,29.8-54.2
		s-31-36.5-54.2-29.8s-36.5,31-29.8,54.2c1.7,5.8,4.4,10.9,8,15.3c-86.7,104.3-80.2,182.6-41.6,286.3c-13.5,7.8-26,17.9-37.3,30.3
		c-23.5,43.7-26.7,83.5-6.8,120.1c63.7,117.3,208.1,79.3,309.1,134.4c37.6,2.5,57.3-96.2,0.1-205C670.5,756.5,591.3,716,517.1,720.3
		c-18.6-86.2,28.4-173.9,117.3-257c10.3,6.8,23.5,9.3,36.3,5.5c23.2-6.7,36.5-31,29.8-54.2C693.9,391.4,669.6,378.1,646.4,384.8z
		 M565.6,770.3c32.3-9.4,66.2,9.2,75.6,41.5c9.4,32.3-9.2,66.2-41.5,75.6c-32.3,9.4-66.2-9.2-75.6-41.5
		C514.7,813.5,533.3,779.7,565.6,770.3z"/>
	<g display="inline">
		<path fill="#F7AF17" d="M744.7,1460.6c-194.3,52.4-343.5,108.3-491.1-52.9c55.8,14,114.4,22.3,131.7-22.1
			C457.9,1451.9,596.6,1460.4,744.7,1460.6z"/>
		<path fill="#F7AF17" d="M593.8,1438.4c-94.6-47.9-160.1-98.8-193.7-189.5c-5.8-15.8-23.2-24.2-39.2-19.1l-1.5,0.5
			c-9.5,3-16.7,10.4-20.4,19.6c-10,25-44.5,24.8-58.2,2.5l-52.3,1.6c25.1,55.1,55.4,103.6,93.3,142.2c10.5,10.7,27.7,12,39.1,2.2
			c9-7.8,17.5-20.1,24.7-35.6C445,1413.5,529.2,1438.1,593.8,1438.4z"/>
		<path fill="#F7AF17" d="M454.2,1311.9c-29.3-100.1-6.7-184.5,59.8-255.9H398.7c-4.6,0-8.9,1.6-12.5,4.5
			c-30.9,25.2-65.2,25.1-76.5-35c-4.1-9.4-17.5-10.6-27.8-10.6l0,0c-23.1,0-41.9,18.7-41.9,41.9V1241l81.7-0.9
			c-2.9-38.6,64.5-50.6,81.6-19.4C411.4,1267.3,428.4,1293.5,454.2,1311.9z"/>
		<path fill="#F7AF17" d="M334.4,924.7c33.8,44.8,235.3,108.1,329.1,110.1c-91.6,21.3-149,81.5-176.8,180.1
			c-18.6-40.5,0-114.9,65.1-163.5c-71.2-22.1-140.7-14.3-189.4,5.6c-15.2,6.2-31.7-5.2-31.2-21.5L334.4,924.7z"/>
	</g>
</g>
<g id="logo_2">
	<path fill="#F6AE2D" d="M1046.6,992.8c9.1,0.3,3.8,7.9-5.2,9.2c-28.4,4.1-140.9,23.5-160.2,40.6c-95,84.1-214.1,27.4-315.4-75.9
		c-5.2-5.3-0.4-14,6.9-12.5c44,9,85.9,10.3,103.8-19.4c2.3-3.9,7.3-4.6,11.1-2.1C833.2,1028.4,936.7,988.7,1046.6,992.8z"/>
	<path fill="#F6AE2D" d="M866.1,985c6.1,0.9,8.5-7.6,2.8-10c-93.6-40-170.8-120.2-200.3-199.9c-5.8-15.8-27.4-14.7-43.4-9.6l0,0
		c-9.9,3.1-18.1,10.3-21.9,20c-8.1,21.2-85.1-2.7-108.2-6.9c-3.5-0.6-6.6,2.3-6.2,5.8c12.2,95.6,30.3,130.8,78.9,154.3
		c13.5,6.5,65.1,18.7,76.4,8.9c7.6-6.6,19.5-40.5,20.9-64c0.2-4.4,5.4-6.5,8.7-3.6C723.2,922.9,774,971.8,866.1,985z"/>
	<g>
		<path fill="#F6AE2D" d="M777.9,632.1c-54.3,57.5-23.8,92.9-5.6,149.7c5.8,18.2-13.4,34.2-30.2,25c-29.1-15.9-62.1-36.4-70.6-64.1
			c-2.4-7.7-9-13.5-17-14.6c-20.4-2.8-54.7,9.1-78.6,37.2c-15.8,18.6-46.4,11.6-63.1,5.9c-7.2-2.5-12.5-8.6-13.9-16
			c-22.7-121.3,23.3-192.6,42.2-215.8c4.7-5.8,12.3-8.8,19.7-7.6c0.1,0,0.2,0,0.3,0.1c8.3,1.5,14.8,7.9,16.7,16
			c12.5,53.7,36.8,71,66.6,46.7c3.5-2.9,26.6-17.8,31.1-17.8c0,0,16-14.3,95.8,21.5C784.5,604.3,787.9,621.5,777.9,632.1z"/>
	</g>
	<path fill="#F6AE2D" d="M774,711.4c30.4-43,52.4-66.2,103.4-132.6c5.6-7.3,0.9-17.8-8.2-18.5C779,553.3,664.1,518,640.5,435
		c-2.4-8.5-13.2-11.2-19.3-4.9c-16.2,16.7-39.4,45.1-44.1,75c-0.9,5.6,2.6,10.9,8,12.6c6,1.9,12.9,6.6,14.3,18.4
		c1.8,16.3,25.2,32.3,40.3,26.1c45.9-18.8,108.7,18.2,175.3,41.1c7.4,2.5,10.1,11.5,5.5,17.8c-17.9,24.4-59.5,41.9-67.2,81.4
		c-0.4,1.9-0.2,4,0.4,5.8l0,0C756.7,717.4,768.6,719.2,774,711.4z"/>
	<path fill="#F6AE2D" d="M537.4,511.9c-31.2-88.8-87.7-161.3-187.4-205.8C208.9,267.7,188.6,319,229,415.5
		c62.3,108.8,165.6,138.9,290.7,127.4c-49.2-55.7-106.2-99-170.3-131.3C406.6,412.4,469.8,448.8,537.4,511.9z"/>
	<path fill="#F6AE2D" d="M467.8,597.4C285.9,529.9,167,584.1,77,694.1C-34.9,826.2,65.5,876,129,878.7
		c215.7,1,315.3-94.3,356.4-238.4c-99.5,12.4-179.5,50.2-236.8,118C287.9,688.8,364.2,636.7,467.8,597.4z"/>
</g>
<g id="logotipo">
	<g enable-background="new    ">
		<path fill="#F6AE2D" d="M1090.2,847.2c-8.1,23.4-22.6,42.4-43.4,57.1c-20.8,14.7-44.9,22.1-72.2,22.1H843l128.2-368.3l119.1-0.6
			c27.8,0,48.6,8.3,62.5,24.9c13.9,16.6,16.8,36.6,8.7,60l-16.1,46.4c-3.5,10.2-10.9,21.1-22.2,32.8c-12.1,12.8-23.7,21.1-34.9,24.9
			c8.9,4.1,15,11.7,18.3,22.6c3.3,10.9,3.3,21.5-0.3,31.7L1090.2,847.2z M1028.3,832.1l7.7-22c9.7-27.9,6.6-41.8-9.2-41.8h-61.6
			l-38.5,110.7l43.8,0.6c16.7,0,29.9-4.7,39.4-14.1C1016.9,858.2,1023.1,847.1,1028.3,832.1z M1083.4,673.7l6.3-18.2
			c6.5-18.5,8-30.8,4.7-36.9c-4.6-7.6-18.2-11.3-40.7-11.3h-32.5l-39.9,114.7c21.5,0.4,32.8,0.6,33.7,0.6c20.8,0,36.1-4,46.1-11.9
			C1069.7,704.1,1077.1,691.8,1083.4,673.7z"/>
		<path fill="#F6AE2D" d="M1344.3,846.8c-8.1,23.4-24.9,43.3-50.4,59.9c-25.5,16.6-52.1,24.9-79.9,24.9h-17.5
			c-27.8,0-48.6-8.3-62.6-24.8c-14-16.5-16.9-36.4-8.8-59.7l35.7-102.6c8.1-23.3,24.9-43.2,50.4-59.8c25.5-16.5,52.1-24.8,79.8-24.8
			h17.5c27.8,0,48.6,8.3,62.6,24.9c13.9,16.6,16.8,36.5,8.7,59.9l-27.1,77.9h-151.8l-3.3,9.5c-6.1,17.5-5.7,29.8,1.1,36.9
			c6.9,7.1,21,10.6,42.3,10.6c12,0,24-10.9,36.1-32.8H1344.3z M1301.9,775.6l6.2-17.9c10.9-31.4,1.8-47-27.3-47
			c-27.3,0-46.5,15.8-57.5,47.4l-6.1,17.5H1301.9z"/>
	</g>
	<g enable-background="new    ">
		<path fill="#F6AE2D" d="M1596.3,846.8c-8.1,23.4-24.9,43.3-50.4,59.9c-25.5,16.6-52.1,24.9-79.9,24.9h-17.5
			c-27.8,0-48.6-8.3-62.6-24.8c-14-16.5-16.9-36.4-8.8-59.7l35.7-102.6c8.1-23.3,24.9-43.2,50.4-59.8c25.5-16.5,52.1-24.8,79.8-24.8
			h17.5c27.8,0,48.6,8.3,62.6,24.9c13.9,16.6,16.8,36.5,8.7,59.9l-27.1,77.9h-151.8l-3.3,9.5c-6.1,17.5-5.7,29.8,1.1,36.9
			c6.9,7.1,21,10.6,42.3,10.6c12,0,24-10.9,36.1-32.8H1596.3z M1553.9,775.6l6.2-17.9c10.9-31.4,1.8-47-27.3-47
			c-27.3,0-46.5,15.8-57.5,47.4l-6.1,17.5H1553.9z"/>
	</g>
	<g enable-background="new    ">
		<path fill="#F6AE2D" d="M1889.5,606.1h-67.8l-111.5,320.3h-69.9l111.5-320.3h-67.2l15.6-46.9h204.9L1889.5,606.1z"/>
	</g>
	<g enable-background="new    ">
		<path fill="#F6AE2D" d="M1882.3,926.4h-69.9l94.4-271.1h69.9L1882.3,926.4z M1988.2,621.9h-69.9l21.8-62.7l69.7,0.6L1988.2,621.9z
			"/>
	</g>
	<g enable-background="new    ">
		<path fill="#F6AE2D" d="M2182,846.8c-8.1,23.4-24.9,43.3-50.4,59.9c-25.5,16.6-52.1,24.9-79.9,24.9h-17.5
			c-27.8,0-48.6-8.3-62.6-24.8c-14-16.5-16.9-36.4-8.8-59.7l35.7-102.6c8.1-23.3,24.9-43.2,50.4-59.8c25.5-16.5,52.1-24.8,79.8-24.8
			h17.5c27.8,0,48.6,8.3,62.6,24.9c13.9,16.6,16.8,36.5,8.7,59.9l-10.4,29.9H2140c6.9-19.8,10-33.8,9.2-42
			c-1.2-14.6-11.4-21.8-30.7-21.8c-27.3,0-46.4,15.7-57.4,47.1l-25.8,74.1c-10.9,31.4-1.9,47.1,27.3,47.1c19.7,0,34.7-7,44.9-20.9
			c4.5-6.4,10.4-20.3,17.9-41.8h67.2L2182,846.8z"/>
		<path fill="#F6AE2D" d="M2398.2,926.4h-85.6l-36-79.1l-27.5,79.1h-70.5l127.8-367.1l70.3,0.6L2319,725.3l87.3-68.3h85.6
			l-170.1,126L2398.2,926.4z"/>
		<path fill="#F6AE2D" d="M2648.9,846.8c-8.1,23.4-24.9,43.3-50.4,59.9c-25.5,16.6-52.1,24.9-79.9,24.9h-17.5
			c-27.8,0-48.6-8.3-62.6-24.8c-14-16.5-16.9-36.4-8.8-59.7l35.7-102.6c8.1-23.3,24.9-43.2,50.4-59.8c25.5-16.5,52.1-24.8,79.8-24.8
			h17.5c27.8,0,48.6,8.3,62.6,24.9c13.9,16.6,16.8,36.5,8.7,59.9l-27.1,77.9h-151.8l-3.3,9.5c-6.1,17.5-5.7,29.8,1.1,36.9
			c6.9,7.1,21,10.6,42.3,10.6c12,0,24-10.9,36.1-32.8H2648.9z M2606.5,775.6l6.2-17.9c10.9-31.4,1.8-47-27.3-47
			c-27.3,0-46.5,15.8-57.5,47.4l-6.1,17.5H2606.5z"/>
		<path fill="#F6AE2D" d="M2801.2,934.3c-77,0-108.9-19.2-95.5-57.5l55.9-160.6h-32.9l17.7-50.8h32.9l17.3-49.7h67.2l-17.3,49.7
			h48.4l-17.7,50.8h-48.4l-51.3,147.5c-3.7,10.5-0.5,17.1,9.5,19.7c4.6,1.1,15.1,1.5,31.6,1.1L2801.2,934.3z"/>
		<path fill="#F6AE2D" d="M3086.8,849c-8.1,23.4-24.9,43.3-50.4,59.9c-25.5,16.6-52.1,24.9-79.9,24.9h-17.5
			c-25.5,0-45.3-7-59.2-20.9c-14-13.9-19.1-31.4-15.3-52.5h70.5c1,15.1,11.6,22.6,31.8,22.6c10.7,0,21.3-3.1,31.8-9.2
			c10.4-6.2,17.1-13.5,20.1-22.1c7-20.1-6.3-30.2-39.9-30.2c-28.7,0-50.3-6.8-64.8-20.3c-15.6-14.3-19.4-33.1-11.2-56.5
			c8.1-23.3,24.9-43.3,50.4-59.9c25.5-16.6,52.1-24.9,79.9-24.9h17.5c25.5,0,45.3,7.1,59.5,21.2c14.1,14.1,19.1,31.7,14.9,52.8
			h-70.5c-0.5-15.4-11-23.2-31.6-23.2c-11.2,0-21.8,2.9-31.9,8.7c-10.1,5.8-16.7,13.3-20,22.7c-7,20.2,6.3,30.2,39.9,30.2
			c28.7,0,50.3,6.6,65,19.8C3091.4,806.3,3095,825.3,3086.8,849z"/>
	</g>
</g>
<g id="Livello_1_1_">
	<path fill="#F6AE2D" d="M765.1,264.3c-12.2,3.7-23.9,8.8-34.9,15.2c-45.4-75.8-79.1-106.8-22.9-208c6.7,0.4-107.2,87.1-2.5,227.1
		c-12.3,9.6-14.9,13.5-24.4,27.3c-17.5,46.5-15.3,86.3,9.2,119.9c78.7,107.8,257.6,102.8,321,53.9c37.6-2.5,47.3-64.8-23.9-165
		c-46.7-59.5-120.1-91.2-193-77c-29.9-83-19.6-115.2,57.5-209.4C862.3,53.8,687.4,116.2,765.1,264.3z M875.9,382.8
		c0,17.3-14,31.3-31.3,31.3s-31.3-14-31.3-31.3s14-31.3,31.3-31.3S875.9,365.5,875.9,382.8z"/>
	<circle fill="#F6AE2D" cx="840.6" cy="60.4" r="31.3"/>
	<circle fill="#F6AE2D" cx="698.9" cy="92.4" r="31.3"/>
</g>
<g id="Modalità_Isolamento">
</g>
</svg>
